<mxfile host="app.diagrams.net" modified="2023-06-05T18:53:34.218Z" agent="Mozilla/5.0 (Windows NT 10.0; Win64; x64) AppleWebKit/537.36 (KHTML, like Gecko) Chrome/114.0.0.0 Safari/537.36" version="21.3.7" etag="hz98VSRI3Ut7Cd0g_ji1" type="github">
  <diagram name="PÃ¡gina-1" id="V6jYTR-O6Eo7j4M_O_9A">
    <mxGraphModel>
      <root>
        <mxCell id="0" />
        <mxCell id="1" parent="0" />
      </root>
    </mxGraphModel>
  </diagram>
</mxfile>
